<?xml version="1.0" encoding="utf-8"?>
<!-- Generator: Adobe Illustrator 26.2.1, SVG Export Plug-In . SVG Version: 6.00 Build 0)  -->
<svg version="1.1" id="Layer_1" xmlns="http://www.w3.org/2000/svg" xmlns:xlink="http://www.w3.org/1999/xlink" x="0px" y="0px"
	 viewBox="0 0 30 30" style="enable-background:new 0 0 30 30;" xml:space="preserve">
<style type="text/css">
	.st0{fill:#FFFFFF;}
</style>
<g>
	<path class="st0" d="M28.56,15.16c-0.05,2.02-0.01,4.04-0.1,6.05c-0.08,1.71-0.56,3.31-1.65,4.67c-1.23,1.52-2.86,2.37-4.77,2.6
		c-1.4,0.16-2.81,0.2-4.22,0.23c-2.19,0.03-4.38,0.03-6.58-0.01c-1.36-0.02-2.73-0.02-4.07-0.36c-3.09-0.79-4.92-2.78-5.48-5.89
		c-0.21-1.18-0.25-2.39-0.27-3.59c-0.04-2.49-0.03-4.98,0-7.46c0.02-1.37,0.01-2.75,0.36-4.09c0.79-3.07,2.77-4.91,5.87-5.47
		c1.18-0.21,2.39-0.25,3.59-0.27c2.5-0.04,4.99-0.03,7.49,0c1.37,0.02,2.75,0.01,4.09,0.36c3.07,0.79,4.89,2.78,5.47,5.87
		c0.18,1,0.22,2.03,0.25,3.05C28.58,12.28,28.56,13.73,28.56,15.16C28.56,15.16,28.54,15.16,28.56,15.16z M14.97,26.28
		c0-0.01,0-0.03,0-0.04c1.14,0,2.28,0.02,3.42-0.01c1.07-0.03,2.14-0.07,3.2-0.18c1.02-0.11,1.96-0.47,2.76-1.17
		c1.09-0.96,1.55-2.22,1.63-3.61c0.1-1.58,0.12-3.17,0.14-4.76c0.02-1.6,0.01-3.2-0.02-4.8c-0.02-1.07-0.07-2.14-0.18-3.2
		c-0.1-1.01-0.46-1.95-1.15-2.74c-0.96-1.1-2.22-1.57-3.62-1.65c-1.58-0.1-3.17-0.12-4.76-0.14c-1.6-0.02-3.2-0.01-4.8,0.02
		C10.53,4.04,9.46,4.09,8.4,4.2C7.38,4.3,6.45,4.66,5.66,5.35C4.56,6.3,4.09,7.57,4.01,8.97c-0.1,1.6-0.12,3.21-0.14,4.82
		c-0.02,1.57-0.02,3.14,0.02,4.71c0.03,1.18,0.05,2.38,0.23,3.54c0.31,1.96,1.44,3.3,3.39,3.83c0.64,0.18,1.32,0.27,1.99,0.29
		C11.33,26.24,13.15,26.25,14.97,26.28z"/>
	<path class="st0" d="M15,8.15c3.86,0,6.98,3.13,6.97,7c-0.01,3.85-3.14,6.96-6.99,6.96c-3.86,0-6.98-3.13-6.97-7
		C8.02,11.26,11.15,8.14,15,8.15z M19.51,15.14c0-2.48-2.02-4.53-4.46-4.53c-2.53,0-4.58,2-4.58,4.5c0,2.51,2.02,4.54,4.5,4.54
		C17.48,19.65,19.51,17.63,19.51,15.14z"/>
	<path class="st0" d="M22.24,9.52c-0.9,0-1.64-0.75-1.63-1.65c0.01-0.89,0.74-1.62,1.63-1.62c0.91,0,1.64,0.73,1.64,1.64
		C23.88,8.79,23.14,9.52,22.24,9.52z"/>
</g>
</svg>
