<?xml version="1.0" encoding="utf-8"?>
<!-- Generator: Adobe Illustrator 26.2.1, SVG Export Plug-In . SVG Version: 6.00 Build 0)  -->
<svg version="1.1" id="Layer_1" xmlns="http://www.w3.org/2000/svg" xmlns:xlink="http://www.w3.org/1999/xlink" x="0px" y="0px"
	 viewBox="0 0 365.64 71.17" style="enable-background:new 0 0 365.64 71.17;" xml:space="preserve">
<style type="text/css">
	.st0{fill:#FFFFFF;}
</style>
<g>
	<path class="st0" d="M23.98,12.38c-0.05,0-0.12-0.02-0.19-0.04c-0.08-0.02-0.13,0.02-0.2,0.11c-0.3,0.96-0.71,2.17-1.24,3.61
		c-0.54,1.44-1.07,2.94-1.61,4.52c-0.53,1.57-1.05,3.09-1.59,4.55c-0.53,1.46-0.94,2.71-1.26,3.72c0,0.3,0.1,0.47,0.31,0.53
		c0.4,0.06,1.15,0.07,2.25,0.07h3.83h2.92c1.04,0,1.76-0.02,2.16-0.07c0.1,0,0.19-0.06,0.26-0.19c0.09-0.12,0.07-0.27-0.03-0.42
		c-0.4-1.16-0.85-2.52-1.36-4.06c-0.5-1.55-1.03-3.11-1.55-4.68c-0.54-1.57-1.04-3.04-1.53-4.41C24.67,14.28,24.28,13.2,23.98,12.38
		 M0.19,49.29c1.37-0.15,2.49-0.35,3.36-0.58c0.87-0.22,1.58-0.57,2.2-1.02c0.61-0.46,1.17-1.11,1.67-1.97
		c0.51-0.86,1.06-2.03,1.67-3.5c0.67-1.52,1.38-3.28,2.16-5.31c0.78-2.03,1.63-4.14,2.48-6.35c0.86-2.2,1.72-4.42,2.54-6.68
		c0.84-2.25,1.63-4.35,2.36-6.31c0.74-1.95,1.38-3.69,1.93-5.24c0.55-1.54,0.96-2.73,1.22-3.53c0.31-0.81,0.58-1.59,0.79-2.36
		c0.23-0.77,0.4-1.43,0.49-1.98c0.15,0,0.44,0.02,0.87,0.04c0.44,0.03,0.98,0.04,1.65,0.04c0.76,0,1.35-0.01,1.74-0.04
		c0.41-0.02,0.66-0.04,0.76-0.04c0.15,0.55,0.33,1.18,0.53,1.86c0.21,0.69,0.44,1.38,0.69,2.09c0.26,0.71,0.69,1.93,1.29,3.64
		c0.61,1.73,1.31,3.7,2.09,5.89c0.79,2.2,1.62,4.55,2.51,7.05c0.88,2.51,1.76,4.93,2.62,7.26c0.86,2.33,1.65,4.46,2.35,6.38
		c0.7,1.92,1.29,3.42,1.74,4.49c0.57,1.26,1.04,2.26,1.45,2.99c0.41,0.74,0.88,1.31,1.44,1.71c0.55,0.4,1.24,0.71,2.05,0.91
		c0.8,0.19,1.9,0.38,3.26,0.53c0.15,0.09,0.19,0.46,0.11,1.07c-0.07,0.61-0.16,0.98-0.26,1.13c-1.01-0.05-2.38-0.1-4.11-0.15
		c-1.73-0.05-3.45-0.07-5.17-0.07c-0.91,0-1.87,0.01-2.88,0.04c-1.01,0.03-1.97,0.05-2.9,0.08c-0.91,0.03-1.73,0.05-2.47,0.07
		c-0.73,0.03-1.3,0.04-1.71,0.04c-0.09-0.15-0.17-0.51-0.23-1.1c-0.04-0.58,0-0.95,0.16-1.1c0.86-0.1,1.63-0.22,2.32-0.35
		c0.68-0.12,1.3-0.28,1.86-0.49c0.51-0.26,0.79-0.55,0.88-0.88c0.07-0.33,0.05-0.67-0.04-1.02c-0.26-0.82-0.56-1.78-0.91-2.93
		c-0.36-1.14-0.75-2.31-1.19-3.53c-0.42-1.22-0.85-2.4-1.29-3.57c-0.42-1.15-0.82-2.18-1.18-3.03c-0.04-0.11-0.14-0.22-0.3-0.34
		c-0.15-0.13-0.28-0.2-0.38-0.2c-0.56-0.05-1.46-0.06-2.7-0.03c-1.23,0.03-2.71,0.03-4.44,0.03h-2.92h-1.71h-0.98H17
		c-0.16,0-0.31,0.1-0.47,0.27c-0.14,0.18-0.24,0.32-0.3,0.42c-0.41,1.01-0.84,2.13-1.28,3.37c-0.45,1.24-0.89,2.44-1.3,3.61
		c-0.4,1.16-0.75,2.23-1.02,3.19c-0.27,0.96-0.45,1.67-0.5,2.12c-0.04,0.66,0.05,1.2,0.31,1.63c0.26,0.44,0.96,0.8,2.13,1.11
		c1.01,0.25,2.22,0.45,3.65,0.61c0.1,0.14,0.12,0.52,0.08,1.1c-0.05,0.59-0.14,0.95-0.23,1.1c-0.81,0-2.1-0.04-3.87-0.11
		c-1.77-0.08-3.73-0.11-5.85-0.11c-2.16,0-3.9,0.04-5.16,0.11c-1.26,0.07-2.26,0.11-2.97,0.11c-0.15-0.15-0.22-0.51-0.22-1.1
		C-0.02,49.81,0.05,49.43,0.19,49.29"/>
	<path class="st0" d="M69.38,20.2c0.72,0,1.4,0.14,2.1,0.41c0.68,0.29,1.17,0.7,1.47,1.26c0.06,0.1,0.08,0.29,0.08,0.57
		c0,0.28-0.02,0.5-0.08,0.65c-0.04,0.25-0.17,0.59-0.34,1.02C72.43,24.54,72.23,25,72,25.48c-0.22,0.48-0.46,0.94-0.72,1.41
		c-0.25,0.46-0.48,0.79-0.69,0.98c-0.05,0.05-0.15,0.11-0.3,0.19c-0.15,0.08-0.26,0.12-0.31,0.12c-0.7-0.61-1.49-1.15-2.35-1.63
		c-0.86-0.48-1.71-0.73-2.58-0.73c-0.76,0-1.49,0.33-2.21,0.99c-0.7,0.66-1.31,1.4-1.81,2.2c-0.1,0.26-0.23,0.63-0.39,1.11
		c-0.16,0.48-0.22,0.97-0.22,1.48v4.25c0,1.52,0.01,2.98,0.04,4.37c0.02,1.39,0.05,2.63,0.07,3.72c0.03,1.09,0.04,1.8,0.04,2.16
		c0.05,0.67,0.18,1.19,0.41,1.56c0.23,0.39,0.62,0.67,1.18,0.88c0.71,0.2,1.47,0.35,2.28,0.45c0.82,0.1,1.65,0.21,2.51,0.31
		c0.1,0.2,0.12,0.59,0.07,1.14c-0.06,0.56-0.18,0.91-0.38,1.06c-0.25,0-0.7-0.01-1.36-0.04c-0.65-0.02-1.42-0.04-2.28-0.07
		c-0.86-0.02-1.76-0.05-2.7-0.07c-0.94-0.03-1.78-0.04-2.54-0.04c-0.61,0-1.28,0.01-2.02,0.04c-0.72,0.02-1.45,0.05-2.15,0.07
		c-0.71,0.03-1.37,0.05-1.98,0.07c-0.61,0.03-1.09,0.04-1.44,0.04c-0.1-0.15-0.17-0.51-0.19-1.1c-0.02-0.58,0.04-0.95,0.19-1.1
		c0.46-0.05,0.97-0.12,1.52-0.23c0.55-0.11,1.03-0.22,1.44-0.38c0.4-0.15,0.71-0.36,0.91-0.65c0.2-0.28,0.35-0.77,0.45-1.48
		c0.05-0.31,0.09-0.9,0.12-1.79c0.03-0.89,0.05-1.93,0.08-3.12c0.02-1.19,0.04-2.47,0.04-3.84v-4.02v-3.72
		c0-1.07-0.02-1.82-0.08-2.28c-0.1-0.56-0.38-1.08-0.87-1.56c-0.48-0.48-1.58-1.03-3.3-1.63c0-0.19,0.03-0.52,0.11-0.91
		c0.07-0.4,0.17-0.66,0.26-0.76c0.67-0.05,1.42-0.18,2.28-0.38c0.86-0.21,1.72-0.44,2.59-0.68c0.85-0.25,1.68-0.54,2.46-0.84
		c0.78-0.31,1.43-0.61,1.94-0.92c0.25,0,0.37,0.1,0.37,0.31c0,0.26,0,0.63-0.02,1.14c-0.03,0.51-0.05,1.05-0.07,1.64
		c-0.03,0.58-0.05,1.15-0.05,1.7v1.37c0,0.25,0.13,0.3,0.39,0.14c0.71-0.91,1.46-1.77,2.27-2.62c0.81-0.83,1.65-1.54,2.5-2.15
		C66.78,20.69,68.07,20.2,69.38,20.2"/>
	<path class="st0" d="M93.61,25.07c-0.96,0-2.28-0.02-3.95-0.05C88,25,86.41,24.99,84.95,24.99c-0.1,0-0.17,0.05-0.23,0.14
		c-0.05,0.1-0.09,0.17-0.09,0.22c0,0.92,0,1.98-0.03,3.19c-0.03,1.22-0.04,2.48-0.04,3.77s0.01,2.56,0.04,3.79
		c0.03,1.24,0.03,2.31,0.03,3.24c0,1.51,0.04,2.67,0.12,3.48c0.08,0.81,0.2,1.47,0.34,1.97c0.36,1.01,0.95,1.76,1.79,2.24
		c0.84,0.49,1.73,0.73,2.69,0.73c1.06,0,1.92-0.12,2.58-0.31c0.66-0.2,1.38-0.53,2.13-0.99c0.05,0.05,0.08,0.2,0.08,0.42
		c0,0.22-0.03,0.47-0.08,0.72c-0.05,0.26-0.08,0.51-0.11,0.76c-0.03,0.26-0.06,0.4-0.11,0.46c-0.97,1.16-2.16,2-3.57,2.54
		c-1.41,0.54-2.73,0.8-3.95,0.8c-1.46,0-2.78-0.3-3.95-0.91c-1.16-0.61-2.07-1.52-2.72-2.73c-0.51-0.91-0.81-1.97-0.93-3.19
		c-0.09-1.22-0.15-3.05-0.15-5.47v-3.61c0-1.34,0.02-2.68,0.05-3.98c0.02-1.32,0.03-2.56,0.03-3.73v-2.88
		c0-0.36-0.15-0.58-0.46-0.68l-4.1-0.31c-0.04-0.25,0.02-0.66,0.2-1.25c0.17-0.59,0.34-0.98,0.49-1.17
		c0.57-0.12,1.22-0.25,1.98-0.42c0.76-0.18,1.29-0.33,1.6-0.5c0.2,0,0.3-0.18,0.3-0.53v-6.46c0.31-0.15,0.68-0.36,1.13-0.64
		c0.46-0.28,0.93-0.6,1.41-0.95c0.49-0.35,0.93-0.69,1.37-1.04c0.44-0.32,0.75-0.6,0.95-0.87c0.21-0.1,0.46-0.15,0.76-0.15
		c0.32,0,0.51,0.02,0.61,0.07c-0.1,0.66-0.19,1.82-0.26,3.49c-0.08,1.68-0.11,3.85-0.11,6.54c0,0.09,0.02,0.19,0.08,0.3
		c0.04,0.11,0.12,0.16,0.21,0.16c0.92,0,1.86-0.02,2.82-0.05c0.96-0.02,1.87-0.05,2.73-0.07c0.86-0.02,1.61-0.06,2.27-0.12
		c0.66-0.05,1.13-0.1,1.44-0.15c-0.1,0.56-0.22,1.26-0.38,2.09C93.77,23.8,93.66,24.51,93.61,25.07"/>
	<path class="st0" d="M96.96,49.29c1.25-0.21,2.21-0.41,2.87-0.61c0.66-0.2,1.08-0.54,1.26-0.99c0.17-0.46,0.3-1.11,0.34-1.97
		c0.06-1.06,0.09-2.32,0.11-3.76c0.03-1.44,0.05-2.94,0.09-4.48c0.02-1.55,0.03-3.1,0.03-4.67v-4.25c0-0.24-0.02-0.58-0.09-1.02
		c-0.04-0.43-0.24-0.79-0.59-1.11c-0.4-0.4-0.93-0.72-1.56-0.94c-0.63-0.23-1.3-0.46-2.01-0.72c-0.11-0.15-0.11-0.47-0.04-0.95
		c0.07-0.47,0.2-0.76,0.34-0.86c1.72-0.2,3.47-0.59,5.25-1.14c1.78-0.56,3.18-1.11,4.17-1.68l0.23,0.39v0.75
		c0,0.35-0.02,0.76-0.04,1.22c-0.03,0.45-0.05,0.9-0.05,1.32v1.11c0,0.1,0.06,0.18,0.18,0.23c0.12,0.06,0.24,0.03,0.36-0.07
		c2.18-1.73,4.15-2.96,5.93-3.73c1.77-0.75,3.24-1.13,4.4-1.13c1.78,0,3.31,0.46,4.64,1.41c1.32,0.92,2.35,2.14,3.11,3.6
		c0.11,0.16,0.28,0.18,0.53,0.08c1.98-1.57,3.89-2.81,5.74-3.72c1.85-0.91,3.51-1.36,4.97-1.36c2.94,0,5.25,1.04,6.91,3.15
		c1.68,2.1,2.51,5.12,2.51,9.08c0,1.01,0.01,2.19,0.03,3.53c0.03,1.34,0.04,2.67,0.04,3.98v3.8v2.96c0,0.25,0.06,0.54,0.18,0.87
		c0.14,0.33,0.33,0.57,0.58,0.72c0.46,0.26,0.98,0.45,1.59,0.57c0.61,0.13,1.42,0.27,2.45,0.42c0.05,0.09,0.05,0.25,0.03,0.46
		c-0.02,0.2-0.05,0.42-0.07,0.68c-0.02,0.25-0.07,0.48-0.16,0.68c-0.07,0.21-0.13,0.33-0.19,0.38c-0.71,0-1.66-0.04-2.85-0.11
		c-1.2-0.08-2.57-0.11-4.14-0.11c-1.91,0-3.44,0.01-4.56,0.04c-1.11,0.03-2.15,0.08-3.12,0.19c-0.1-0.1-0.16-0.47-0.18-1.1
		c-0.03-0.63,0.04-1,0.18-1.1c0.71-0.1,1.27-0.21,1.68-0.31c0.4-0.1,0.81-0.23,1.21-0.38c0.56-0.2,0.91-0.57,1.07-1.1
		c0.16-0.53,0.25-1.41,0.31-2.62c0-1.02,0.02-2.23,0.03-3.64c0.02-1.43,0.04-2.82,0.04-4.18c0-1.38-0.02-2.64-0.07-3.84
		c-0.05-1.2-0.13-2.06-0.23-2.62c-0.1-0.61-0.3-1.27-0.58-1.97c-0.28-0.71-0.68-1.35-1.22-1.9c-0.52-0.56-1.19-1.04-2-1.4
		c-0.81-0.38-1.81-0.58-2.96-0.58c-1.01,0-2.09,0.21-3.23,0.65c-1.14,0.43-2.29,1.12-3.46,2.09c-0.1,0.06-0.16,0.13-0.16,0.22v0.31
		c0.1,0.71,0.18,1.5,0.23,2.39c0.05,0.89,0.09,1.91,0.09,3.07v3.34v3.64v3.46c0,1.09,0.02,2.04,0.07,2.85
		c0,0.56,0.12,0.96,0.34,1.21c0.23,0.26,0.53,0.47,0.87,0.61c0.51,0.15,0.98,0.27,1.45,0.38c0.45,0.1,1.06,0.21,1.81,0.31
		c0.15,0.14,0.2,0.53,0.11,1.14c-0.07,0.61-0.18,0.96-0.34,1.06c-1.06-0.05-2.2-0.1-3.42-0.15c-1.22-0.05-2.63-0.07-4.25-0.07
		c-1.17,0-2.46,0.04-3.89,0.11c-1.41,0.07-2.48,0.11-3.18,0.11c-0.15-0.1-0.23-0.45-0.23-1.06c0-0.61,0.08-0.99,0.23-1.14
		c0.66-0.1,1.22-0.19,1.66-0.27c0.45-0.08,0.91-0.18,1.38-0.34c0.51-0.15,0.85-0.41,1.02-0.77c0.18-0.35,0.3-0.96,0.34-1.83
		c0.05-0.91,0.1-2.14,0.12-3.67c0.03-1.55,0.04-3.13,0.04-4.74c0-1.62-0.02-3.14-0.08-4.52c-0.04-1.39-0.12-2.36-0.22-2.93
		c-0.11-0.61-0.29-1.23-0.53-1.9c-0.26-0.65-0.64-1.26-1.16-1.81c-0.51-0.56-1.14-1.02-1.9-1.37c-0.77-0.35-1.71-0.53-2.83-0.53
		c-0.87,0-1.87,0.18-2.98,0.57c-1.13,0.38-2.19,0.97-3.21,1.79c-0.26,0.25-0.48,0.52-0.68,0.8c-0.22,0.29-0.31,0.63-0.31,1.02v4.32
		v5.05v4.79c0,1.49,0.02,2.69,0.07,3.61c0,0.51,0.1,0.96,0.31,1.36c0.2,0.4,0.64,0.69,1.29,0.84c0.3,0.1,0.71,0.19,1.22,0.27
		c0.51,0.08,1.07,0.17,1.67,0.27c0.16,0.14,0.2,0.52,0.16,1.1c-0.06,0.59-0.16,0.95-0.31,1.1c-0.87,0-1.92-0.04-3.18-0.11
		c-1.27-0.08-2.66-0.11-4.23-0.11c-1.94,0-3.42,0.04-4.44,0.11c-1.01,0.07-2,0.11-2.95,0.11c-0.21-0.15-0.31-0.53-0.31-1.13
		C96.65,49.75,96.75,49.38,96.96,49.29"/>
	<path class="st0" d="M168.26,23.09c-1.82,0-3.34,0.76-4.55,2.31c-1.22,1.54-1.93,3.68-2.14,6.42c0,0.11,0.05,0.2,0.12,0.34
		c0.07,0.13,0.16,0.18,0.26,0.18c0.61,0.05,1.55,0.07,2.8,0.04c1.28-0.02,2.6-0.06,3.95-0.11c1.37-0.05,2.63-0.09,3.8-0.16
		c1.17-0.04,1.95-0.11,2.35-0.22c0.24-0.25,0.38-0.47,0.38-0.68c-0.1-0.96-0.33-1.93-0.68-2.89c-0.36-0.96-0.84-1.82-1.42-2.62
		c-0.58-0.77-1.29-1.41-2.12-1.9C170.21,23.33,169.28,23.09,168.26,23.09 M181.48,43.98c0.15,0.15,0.25,0.3,0.29,0.46
		c0.06,0.26,0.03,0.63-0.07,1.13c-0.1,0.52-0.19,0.81-0.3,0.91c-0.87,0.97-1.79,1.8-2.81,2.51c-1,0.71-2.06,1.31-3.14,1.78
		c-1.11,0.49-2.16,0.84-3.24,1.07c-1.06,0.23-2.03,0.34-2.88,0.34c-3.85,0-6.93-1.21-9.27-3.64c-1.56-1.57-2.68-3.43-3.34-5.58
		c-0.66-2.15-0.99-4.32-0.99-6.49c0-3.35,0.64-6.14,1.9-8.4c1.26-2.25,2.87-4.04,4.79-5.35c1.17-0.76,2.52-1.37,4.06-1.83
		c1.54-0.46,2.93-0.68,4.13-0.68c1.84,0,3.39,0.36,4.68,1.1c1.29,0.74,2.34,1.63,3.19,2.7c0.84,1.06,1.46,2.23,1.9,3.49
		c0.42,1.26,0.71,2.43,0.86,3.49c0.1,0.36,0.49,0.63,1.14,0.83c0.06,0.16-0.01,0.46-0.18,0.91c-0.19,0.47-0.31,0.75-0.43,0.84
		c-0.8,0.25-2,0.46-3.56,0.65c-1.57,0.18-3.3,0.34-5.2,0.49c-1.91,0.15-3.84,0.27-5.83,0.35c-1.96,0.07-3.73,0.14-5.3,0.19
		c-0.32,0.1-0.46,0.38-0.46,0.83c0.1,1.31,0.43,2.68,0.94,4.11c0.54,1.41,1.26,2.63,2.18,3.64c1.16,1.15,2.39,2.01,3.72,2.54
		c1.31,0.54,2.83,0.8,4.55,0.8c1.53,0,2.99-0.24,4.41-0.72C178.64,45.96,180.06,45.13,181.48,43.98"/>
	<path class="st0" d="M186.26,49.29c0.97-0.15,1.87-0.34,2.74-0.53c0.55-0.15,0.95-0.47,1.17-0.95c0.23-0.48,0.36-1.04,0.42-1.71
		c0.04-0.59,0.09-1.36,0.13-2.27c0.01-0.92,0.03-1.94,0.03-3.04v-3.49v-3.64c0-1.46-0.02-2.71-0.03-3.72
		c-0.03-1.01-0.08-1.79-0.13-2.36c-0.1-0.55-0.42-1.04-0.98-1.44c-0.55-0.4-1.56-0.88-2.96-1.44c-0.1-0.25-0.1-0.59,0-0.98
		c0.1-0.4,0.22-0.66,0.37-0.76c0.77-0.05,1.59-0.18,2.48-0.38c0.87-0.21,1.75-0.44,2.62-0.72c0.85-0.26,1.66-0.57,2.42-0.88
		c0.76-0.3,1.37-0.58,1.82-0.84c0.05,0.06,0.12,0.13,0.19,0.24c0.07,0.09,0.12,0.19,0.12,0.3c-0.06,0.4-0.1,1.06-0.12,1.97
		c-0.03,0.92-0.04,1.7-0.04,2.37c0,0.25,0.13,0.3,0.38,0.15c1.97-1.62,3.86-2.85,5.65-3.68c1.8-0.85,3.35-1.26,4.67-1.26
		c1.62,0,3.03,0.34,4.22,1.02c1.19,0.68,2.22,1.66,3.08,2.94c0.7,1.15,1.21,2.49,1.5,3.98c0.32,1.5,0.47,3.16,0.47,4.98v3.57v3.91
		c0,1.29,0.01,2.49,0.03,3.6c0.03,1.12,0.07,2,0.11,2.66c0,0.31,0.07,0.6,0.2,0.88c0.12,0.28,0.31,0.46,0.56,0.57
		c0.61,0.3,1.2,0.53,1.79,0.64c0.58,0.13,1.24,0.25,2.01,0.35c0.1,0.2,0.14,0.57,0.12,1.1c-0.04,0.54-0.15,0.89-0.35,1.1
		c-0.56,0-1.42-0.04-2.58-0.11c-1.17-0.08-2.73-0.11-4.71-0.11c-1.77,0-3.24,0.02-4.4,0.07c-1.17,0.05-2.21,0.1-3.12,0.15
		c-0.1-0.15-0.16-0.51-0.19-1.1c-0.03-0.58,0.04-0.95,0.19-1.1c0.7-0.1,1.34-0.19,1.9-0.27c0.56-0.08,0.96-0.17,1.22-0.27
		c0.56-0.2,0.91-0.51,1.07-0.95c0.15-0.43,0.25-1.14,0.3-2.16c0-1.06,0.01-2.3,0.03-3.68c0.03-1.39,0.06-2.79,0.06-4.22
		c0-1.42-0.04-2.74-0.08-3.95c-0.06-1.2-0.13-2.18-0.24-2.89c-0.1-0.6-0.29-1.35-0.61-2.24c-0.29-0.87-0.8-1.63-1.51-2.24
		c-0.56-0.5-1.2-0.92-1.93-1.25c-0.74-0.33-1.66-0.49-2.77-0.49c-1.12,0-2.24,0.22-3.35,0.65c-1.1,0.42-2.1,1.02-2.96,1.77
		c-0.26,0.26-0.45,0.58-0.58,0.95c-0.13,0.39-0.19,0.98-0.19,1.79v4.33v4.52c0,1.5,0.01,2.89,0.04,4.18
		c0.02,1.29,0.06,2.36,0.12,3.22c0.05,0.87,0.16,1.48,0.34,1.83c0.18,0.35,0.54,0.61,1.11,0.77c0.4,0.15,0.88,0.26,1.44,0.34
		c0.57,0.08,1.14,0.17,1.75,0.27c0.1,0.14,0.12,0.51,0.07,1.07c-0.05,0.55-0.14,0.92-0.29,1.13c-0.56,0-1.41-0.04-2.55-0.11
		c-1.15-0.08-2.77-0.11-4.89-0.11c-1.88,0-3.46,0.04-4.75,0.11c-1.29,0.07-2.17,0.11-2.63,0.11c-0.15-0.15-0.23-0.51-0.23-1.1
		C186.03,49.81,186.11,49.43,186.26,49.29"/>
	<path class="st0" d="M243,25.07c-0.97,0-2.29-0.02-3.95-0.05c-1.67-0.02-3.25-0.03-4.71-0.03c-0.1,0-0.18,0.05-0.23,0.14
		c-0.05,0.1-0.08,0.17-0.08,0.22c0,0.92-0.01,1.98-0.04,3.19c-0.03,1.22-0.04,2.48-0.04,3.77s0.01,2.56,0.04,3.79
		c0.03,1.24,0.04,2.31,0.04,3.24c0,1.51,0.04,2.67,0.11,3.48c0.09,0.81,0.2,1.47,0.34,1.97c0.36,1.01,0.95,1.76,1.79,2.24
		c0.83,0.49,1.73,0.73,2.7,0.73c1.06,0,1.91-0.12,2.57-0.31c0.67-0.2,1.37-0.53,2.13-0.99c0.05,0.05,0.08,0.2,0.08,0.42
		c0,0.22-0.03,0.47-0.08,0.72c-0.05,0.26-0.09,0.51-0.13,0.76c-0.02,0.26-0.05,0.4-0.1,0.46c-0.97,1.16-2.16,2-3.57,2.54
		c-1.43,0.54-2.73,0.8-3.95,0.8c-1.47,0-2.78-0.3-3.96-0.91c-1.15-0.61-2.07-1.52-2.72-2.73c-0.5-0.91-0.81-1.97-0.9-3.19
		c-0.1-1.22-0.17-3.05-0.17-5.47v-3.61c0-1.34,0.02-2.68,0.05-3.98c0.02-1.32,0.04-2.56,0.04-3.73v-2.88c0-0.36-0.15-0.58-0.45-0.68
		l-4.11-0.31c-0.04-0.25,0.01-0.66,0.19-1.25c0.18-0.59,0.35-0.98,0.49-1.17c0.56-0.12,1.21-0.25,1.98-0.42
		c0.76-0.18,1.29-0.33,1.59-0.5c0.2,0,0.3-0.18,0.3-0.53v-6.46c0.31-0.15,0.68-0.36,1.14-0.64c0.46-0.28,0.93-0.6,1.41-0.95
		c0.47-0.35,0.93-0.69,1.36-1.04c0.43-0.32,0.75-0.6,0.95-0.87c0.21-0.1,0.45-0.15,0.75-0.15c0.31,0,0.51,0.02,0.61,0.07
		c-0.1,0.66-0.19,1.82-0.26,3.49c-0.09,1.68-0.12,3.85-0.12,6.54c0,0.09,0.02,0.19,0.08,0.3c0.04,0.11,0.11,0.16,0.22,0.16
		c0.91,0,1.86-0.02,2.82-0.05c0.95-0.02,1.86-0.05,2.72-0.07c0.86-0.02,1.61-0.06,2.28-0.12c0.65-0.05,1.13-0.1,1.45-0.15
		c-0.1,0.56-0.23,1.26-0.38,2.09C243.15,23.8,243.04,24.51,243,25.07"/>
	<path class="st0" d="M252.56,43.28c1.12,0,2.05,0.38,2.81,1.15c0.56,0.51,0.92,1.07,1.1,1.66c0.18,0.61,0.27,1.2,0.27,1.76
		c0,0.4-0.1,0.9-0.3,1.47c-0.21,0.58-0.51,1.08-0.91,1.48c-0.41,0.46-0.9,0.79-1.47,0.98c-0.59,0.2-1.19,0.31-1.79,0.31
		c-0.4,0-0.87-0.09-1.37-0.27c-0.51-0.18-0.96-0.48-1.36-0.87c-0.86-0.87-1.29-1.95-1.29-3.27c0-1.11,0.45-2.18,1.36-3.19
		C250.51,43.69,251.5,43.28,252.56,43.28"/>
	<path class="st0" d="M278.39,23.46c-1.07,0-2.1,0.18-3.08,0.54c-0.98,0.35-1.86,0.91-2.61,1.67c-1.08,1.01-1.89,2.3-2.44,3.87
		c-0.56,1.57-0.83,3.34-0.83,5.31c0,4.11,0.97,7.21,2.93,9.31c1.94,2.1,4.36,3.15,7.24,3.15c2.27,0,4.25-0.68,5.92-2.04
		c0.41-0.4,0.61-0.94,0.61-1.61c0.04-0.45,0.1-1.33,0.12-2.62c0.02-1.29,0.03-2.71,0.03-4.25v-4.55v-3.54
		c-0.05-0.81-0.17-1.48-0.38-2.01c-0.2-0.54-0.62-1.02-1.29-1.49c-0.81-0.6-1.74-1.04-2.81-1.32
		C280.74,23.6,279.59,23.46,278.39,23.46 M297.06,47.62c0.05,0.21,0.03,0.55-0.07,1.07c-0.1,0.51-0.21,0.83-0.31,0.98
		c-0.51,0.26-1.21,0.54-2.13,0.84c-0.91,0.31-1.86,0.6-2.85,0.92c-0.97,0.3-1.92,0.57-2.85,0.79c-0.9,0.23-1.59,0.34-2.04,0.34
		c-0.25,0-0.43-0.33-0.53-0.99c-0.05-0.3-0.09-0.86-0.11-1.68c-0.02-0.8-0.04-1.48-0.04-2.04c0-0.21-0.13-0.31-0.38-0.31
		c-0.86,0.61-1.77,1.17-2.73,1.71c-0.96,0.53-1.93,1.01-2.89,1.45c-0.97,0.42-1.88,0.75-2.73,0.99c-0.87,0.23-1.62,0.34-2.27,0.34
		c-1.63,0-3.16-0.34-4.6-1.03c-1.45-0.69-2.67-1.69-3.68-3.01c-1.13-1.31-1.97-2.91-2.56-4.78c-0.57-1.88-0.87-3.86-0.87-6
		c0-2.43,0.49-4.72,1.48-6.86c0.99-2.16,2.35-3.95,4.06-5.35c0.76-0.66,1.68-1.28,2.78-1.87c1.09-0.59,2.25-1.08,3.46-1.51
		c1.21-0.44,2.44-0.78,3.72-1.03c1.26-0.26,2.51-0.38,3.72-0.38c0.6,0,1.22,0.04,1.86,0.11c0.63,0.08,1.15,0.14,1.56,0.2
		c0.2,0,0.3-0.11,0.3-0.31v-5.54v-3.7c0-0.98,0-1.77-0.03-2.38c-0.04-0.61-0.07-1.15-0.13-1.6c-0.1-0.7-0.25-1.24-0.46-1.59
		c-0.2-0.36-0.58-0.63-1.13-0.83c-0.52-0.16-1.2-0.29-2.06-0.43c-0.86-0.12-1.65-0.24-2.35-0.34c-0.1-0.25-0.15-0.63-0.12-1.14
		c0.03-0.51,0.16-0.82,0.42-0.92c1.21,0,2.43-0.06,3.65-0.19c1.21-0.13,2.36-0.29,3.45-0.5c1.08-0.2,2.07-0.41,2.96-0.64
		c0.88-0.23,1.64-0.44,2.24-0.65c0.1,0.05,0.2,0.22,0.3,0.49c0.1,0.28,0.13,0.46,0.08,0.57c-0.36,0.55-0.56,1.21-0.64,1.97
		c-0.07,0.76-0.15,2-0.2,3.72c-0.06,1.01-0.08,2.17-0.12,3.46c-0.03,1.29-0.04,2.81-0.07,4.56c-0.02,1.74-0.05,3.75-0.07,6
		c-0.04,2.26-0.05,4.83-0.05,7.77v11.06c0,2.91,0.03,4.8,0.08,5.66c0.06,1.16,0.2,1.86,0.45,2.08c0.25,0.23,0.58,0.39,0.99,0.49
		c0.45,0.1,0.98,0.14,1.58,0.12C295.77,47.72,296.41,47.66,297.06,47.62"/>
	<path class="st0" d="M313.69,23.09c-1.81,0-3.35,0.76-4.55,2.31c-1.22,1.54-1.92,3.68-2.12,6.42c0,0.11,0.03,0.2,0.12,0.34
		c0.07,0.13,0.16,0.18,0.26,0.18c0.61,0.05,1.54,0.07,2.81,0.04c1.27-0.02,2.58-0.06,3.95-0.11c1.36-0.05,2.63-0.09,3.79-0.16
		c1.17-0.04,1.95-0.11,2.36-0.22c0.25-0.25,0.37-0.47,0.37-0.68c-0.1-0.96-0.33-1.93-0.68-2.89c-0.35-0.96-0.82-1.82-1.4-2.62
		c-0.58-0.77-1.29-1.41-2.13-1.9C315.63,23.33,314.7,23.09,313.69,23.09 M326.9,43.98c0.16,0.15,0.25,0.3,0.31,0.46
		c0.04,0.26,0.03,0.63-0.08,1.13c-0.09,0.52-0.19,0.81-0.3,0.91c-0.86,0.97-1.79,1.8-2.8,2.51c-1.03,0.71-2.07,1.31-3.17,1.78
		c-1.07,0.49-2.15,0.84-3.21,1.07c-1.07,0.23-2.03,0.34-2.89,0.34c-3.86,0-6.94-1.21-9.26-3.64c-1.57-1.57-2.69-3.43-3.35-5.58
		c-0.65-2.15-0.98-4.32-0.98-6.49c0-3.35,0.63-6.14,1.89-8.4c1.27-2.25,2.86-4.04,4.79-5.35c1.16-0.76,2.52-1.37,4.07-1.83
		c1.54-0.46,2.92-0.68,4.13-0.68c1.83,0,3.39,0.36,4.67,1.1c1.3,0.74,2.37,1.63,3.19,2.7c0.83,1.06,1.47,2.23,1.9,3.49
		c0.43,1.26,0.71,2.43,0.87,3.49c0.09,0.36,0.47,0.63,1.14,0.83c0.04,0.16-0.02,0.46-0.2,0.91c-0.17,0.47-0.31,0.75-0.42,0.84
		c-0.81,0.25-2,0.46-3.57,0.65c-1.57,0.18-3.3,0.34-5.2,0.49c-1.9,0.15-3.83,0.27-5.81,0.35c-1.98,0.07-3.75,0.14-5.32,0.19
		c-0.3,0.1-0.46,0.38-0.46,0.83c0.1,1.31,0.42,2.68,0.94,4.11c0.53,1.41,1.26,2.63,2.17,3.64c1.16,1.15,2.4,2.01,3.71,2.54
		c1.32,0.54,2.84,0.8,4.56,0.8c1.52,0,3-0.24,4.41-0.72C324.07,45.96,325.48,45.13,326.9,43.98"/>
	<path class="st0" d="M348.78,24.76c-1.07,0-2.17,0.21-3.31,0.65c-1.14,0.43-2.18,1.02-3.15,1.78c-0.21,0.09-0.38,0.32-0.52,0.66
		c-0.17,0.31-0.24,0.63-0.24,0.94c-0.05,0.46-0.08,1.34-0.08,2.69v4.29v4.36v3.08c0.06,0.87,0.22,1.57,0.51,2.13
		c0.27,0.55,0.61,1.01,1.02,1.36c1.52,1.21,3.52,1.83,6,1.83c0.81,0,1.69-0.16,2.62-0.46c0.93-0.3,1.83-0.83,2.7-1.6
		c1.16-0.96,2.04-2.29,2.61-3.98c0.59-1.69,0.88-3.63,0.88-5.81c0-1.72-0.22-3.35-0.64-4.9c-0.45-1.54-1.09-2.87-1.95-3.98
		C353.56,25.78,351.4,24.76,348.78,24.76 M330.93,24.84c-0.1-0.21-0.14-0.55-0.11-1.04c0.03-0.47,0.11-0.79,0.26-0.95
		c0.65-0.09,1.43-0.26,2.32-0.49c0.9-0.22,1.79-0.51,2.74-0.82c0.93-0.33,1.85-0.67,2.73-1.02c0.88-0.36,1.68-0.74,2.39-1.15
		c0.11-0.11,0.22-0.06,0.37,0.11c0.17,0.18,0.23,0.32,0.23,0.42c-0.1,0.5-0.16,1.25-0.19,2.24c-0.03,0.98-0.04,1.84-0.04,2.54
		c0,0.1,0.06,0.17,0.17,0.19c0.1,0.03,0.17,0.02,0.21-0.03c2.58-1.78,4.72-2.99,6.43-3.64c1.69-0.66,3.17-0.99,4.43-0.99
		c1.53,0,2.94,0.33,4.26,0.99c1.33,0.66,2.41,1.49,3.27,2.5c1.32,1.47,2.23,3.09,2.76,4.85c0.54,1.78,0.82,3.48,0.82,5.1
		c0,3.19-0.59,5.89-1.76,8.12c-1.16,2.23-2.79,4.18-4.86,5.85c-0.91,0.76-1.92,1.41-3,1.97c-1.08,0.56-2.18,1.02-3.3,1.41
		c-1.13,0.38-2.2,0.68-3.23,0.88c-1.04,0.2-2.02,0.3-2.92,0.3c-0.41,0-0.88-0.05-1.41-0.15c-0.53-0.1-1.07-0.21-1.63-0.31
		c-0.05-0.04-0.12-0.03-0.23,0.04c-0.09,0.08-0.15,0.14-0.15,0.19c0,5.26,0.08,9.22,0.24,11.85c0.05,0.85,0.22,1.51,0.52,1.94
		c0.31,0.44,0.89,0.72,1.75,0.88c0.51,0.09,1.19,0.19,2.04,0.3c0.87,0.1,1.7,0.2,2.51,0.31c0.1,0.2,0.13,0.59,0.09,1.17
		c-0.07,0.58-0.19,0.92-0.39,1.02h-3.04c-3.79,0-6.86,0.13-9.22,0.38c-2.35,0.26-4.27,0.43-5.73,0.53c-0.1-0.2-0.16-0.59-0.19-1.14
		c-0.03-0.56,0.03-0.94,0.19-1.15l3.26-0.75c0.75-0.25,1.27-0.64,1.52-1.15c0.26-0.49,0.43-1.36,0.53-2.58
		c0-0.56,0.02-1.3,0.03-2.24c0.03-0.93,0.05-2.14,0.09-3.6c0.01-1.47,0.04-3.29,0.07-5.47c0.02-2.19,0.02-4.81,0.02-7.91v-6.34v-4.4
		c0-1.19-0.01-2.19-0.02-3.01c-0.03-0.81-0.06-1.54-0.11-2.2c-0.05-1.31-0.43-2.18-1.15-2.59
		C333.74,25.41,332.56,25.09,330.93,24.84"/>
</g>
</svg>
